# xmcd CD database file
#
# Track frame offsets:
#	150
#	14484
#	33972
#	50918
#	67276
#	84690
#	101415
#	115392
#	129835
#	144967
#	157167
#
# Disc length: 2243 seconds
#
# Revision: 0
# Processed by: cddbd v1.5.1PL2 Copyright (c) Steve Scherf et al.
# Submitted via: Feurio! 1.68 - http://www.feurio.com
#
DISCID=9b08c10b
DTITLE=homesick hank - leave it behind
DYEAR=1900
DGENRE=Alternative Country
TTITLE0=rock and roll
TTITLE1=leave it behind (w. will oldham)
TTITLE2=song for susan
TTITLE3=the end of the road (w. catherine irwin)
TTITLE4=white eye
TTITLE5=falling with the fall
TTITLE6=used cows for sale
TTITLE7=daddy, i'm a dad now
TTITLE8=the critic
TTITLE9=exit
TTITLE10=is this love?
EXTD=recorded by paul oldham and homesick hank
EXTT0=
EXTT1=
EXTT2=
EXTT3=
EXTT4=
EXTT5=
EXTT6=
EXTT7=
EXTT8=
EXTT9=
EXTT10=
PLAYORDER=
